<svg width="18" height="19" viewBox="0 0 18 19" fill="none" xmlns="http://www.w3.org/2000/svg">
<g clip-path="url(#clip0_671_39203)">
<path d="M6.81799 7.25C6.99432 6.74875 7.34235 6.32608 7.80045 6.05685C8.25856 5.78762 8.79716 5.6892 9.32087 5.77903C9.84458 5.86886 10.3196 6.14114 10.6618 6.54765C11.004 6.95415 11.1913 7.46864 11.1905 8C11.1905 9.5 8.94049 10.25 8.94049 10.25M9.00049 13.25H9.00799M16.5005 9.5C16.5005 13.6421 13.1426 17 9.00049 17C4.85835 17 1.50049 13.6421 1.50049 9.5C1.50049 5.35786 4.85835 2 9.00049 2C13.1426 2 16.5005 5.35786 16.5005 9.5Z" stroke="#98A2B3" stroke-width="1.75" stroke-linecap="round" stroke-linejoin="round"/>
</g>
<defs>
<clipPath id="clip0_671_39203">
<rect width="18" height="18" fill="white" transform="translate(0.000488281 0.5)"/>
</clipPath>
</defs>
</svg>
