<svg width="21" height="20" viewBox="0 0 21 20" fill="none" xmlns="http://www.w3.org/2000/svg">
<path d="M2.52148 6.5C2.52148 5.09987 2.52148 4.3998 2.79397 3.86502C3.03365 3.39462 3.4161 3.01217 3.88651 2.77248C4.42129 2.5 5.12135 2.5 6.52148 2.5H13.5215C14.9216 2.5 15.6217 2.5 16.1565 2.77248C16.6269 3.01217 17.0093 3.39462 17.249 3.86502C17.5215 4.3998 17.5215 5.09987 17.5215 6.5V13.5C17.5215 14.9001 17.5215 15.6002 17.249 16.135C17.0093 16.6054 16.6269 16.9878 16.1565 17.2275C15.6217 17.5 14.9216 17.5 13.5215 17.5H6.52148C5.12135 17.5 4.42129 17.5 3.88651 17.2275C3.4161 16.9878 3.03365 16.6054 2.79397 16.135C2.52148 15.6002 2.52148 14.9001 2.52148 13.5V6.5Z" stroke="#EAECF0" stroke-width="2" stroke-linecap="round" stroke-linejoin="round"/>
<path d="M10.0215 5L6.21615 10.1891C5.96529 10.5312 5.83986 10.7022 5.8439 10.8451C5.84743 10.9695 5.90636 11.0858 6.00459 11.1622C6.11744 11.25 6.32954 11.25 6.75375 11.25H10.0215V15L13.8268 9.81091C14.0777 9.46882 14.2031 9.29778 14.1991 9.15487C14.1955 9.03048 14.1366 8.91418 14.0384 8.83777C13.9255 8.75 13.7134 8.75 13.2892 8.75H10.0215V5Z" stroke="#EAECF0" stroke-width="2" stroke-linecap="round" stroke-linejoin="round"/>
</svg>
