<svg width="21" height="20" viewBox="0 0 21 20" fill="none" xmlns="http://www.w3.org/2000/svg">
<g clip-path="url(#clip0_722_5857)">
<path d="M18.3551 6.66635V9.99968M8.56347 4.58302H5.68848C4.28834 4.58302 3.58828 4.58302 3.0535 4.8555C2.58309 5.09518 2.20064 5.47763 1.96096 5.94804C1.68848 6.48282 1.68848 7.18289 1.68848 8.58302L1.68848 9.58302C1.68848 10.3596 1.68848 10.7479 1.81535 11.0542C1.9845 11.4625 2.30896 11.787 2.71734 11.9561C3.02362 12.083 3.41191 12.083 4.18848 12.083V15.6247C4.18848 15.8182 4.18848 15.9149 4.1965 15.9964C4.27444 16.7877 4.90049 17.4137 5.69178 17.4917C5.77327 17.4997 5.87 17.4997 6.06348 17.4997C6.25695 17.4997 6.35369 17.4997 6.43517 17.4917C7.22647 17.4137 7.85252 16.7877 7.93045 15.9964C7.93848 15.9149 7.93848 15.8182 7.93848 15.6247V12.083H8.56348C10.0355 12.083 11.8362 12.8721 13.2254 13.6294C14.0358 14.0712 14.4411 14.2921 14.7065 14.2596C14.9526 14.2294 15.1386 14.1189 15.2829 13.9173C15.4385 13.6998 15.4385 13.2647 15.4385 12.3944V4.27159C15.4385 3.40135 15.4385 2.96622 15.2829 2.74876C15.1386 2.5471 14.9526 2.4366 14.7065 2.40646C14.4411 2.37395 14.0358 2.59485 13.2254 3.03664C11.8362 3.79394 10.0355 4.58302 8.56347 4.58302Z" stroke="white" stroke-width="2" stroke-linecap="round" stroke-linejoin="round"/>
</g>
<defs>
<clipPath id="clip0_722_5857">
<rect width="20" height="20" fill="white" transform="translate(0.0214844)"/>
</clipPath>
</defs>
</svg>
