<svg width="21" height="20" viewBox="0 0 21 20" fill="none" xmlns="http://www.w3.org/2000/svg">
<path d="M6.68815 14.1663H13.3548M9.2029 2.30297L3.55098 6.6989C3.17317 6.99275 2.98426 7.13968 2.84817 7.32368C2.72762 7.48667 2.63782 7.67029 2.58317 7.86551C2.52148 8.0859 2.52148 8.32521 2.52148 8.80384V14.833C2.52148 15.7664 2.52148 16.2331 2.70314 16.5896C2.86293 16.9032 3.1179 17.1582 3.4315 17.318C3.78802 17.4996 4.25473 17.4996 5.18815 17.4996H14.8548C15.7882 17.4996 16.2549 17.4996 16.6115 17.318C16.9251 17.1582 17.18 16.9032 17.3398 16.5896C17.5215 16.2331 17.5215 15.7664 17.5215 14.833V8.80384C17.5215 8.32521 17.5215 8.0859 17.4598 7.86551C17.4051 7.67029 17.3153 7.48667 17.1948 7.32368C17.0587 7.13968 16.8698 6.99275 16.492 6.69891L10.8401 2.30297C10.5473 2.07526 10.4009 1.9614 10.2393 1.91763C10.0966 1.87902 9.94632 1.87902 9.8037 1.91763C9.64205 1.9614 9.49567 2.07526 9.2029 2.30297Z" stroke="#EAECF0" stroke-width="2" stroke-linecap="round" stroke-linejoin="round"/>
</svg>
