<svg width="21" height="20" viewBox="0 0 21 20" fill="none" xmlns="http://www.w3.org/2000/svg">
<path d="M9.18815 3.33333H6.52148C5.12135 3.33333 4.42129 3.33333 3.88651 3.60582C3.4161 3.8455 3.03365 4.22795 2.79397 4.69836C2.52148 5.23314 2.52148 5.9332 2.52148 7.33333V13.5C2.52148 14.9001 2.52148 15.6002 2.79397 16.135C3.03365 16.6054 3.4161 16.9878 3.88651 17.2275C4.42129 17.5 5.12135 17.5 6.52148 17.5H12.6882C14.0883 17.5 14.7883 17.5 15.3231 17.2275C15.7935 16.9878 16.176 16.6054 16.4157 16.135C16.6882 15.6002 16.6882 14.9001 16.6882 13.5V10.8333M16.7893 3.23223C17.7656 4.20854 17.7656 5.79146 16.7893 6.76777C15.8129 7.74408 14.23 7.74408 13.2537 6.76777C12.2774 5.79146 12.2774 4.20854 13.2537 3.23223C14.23 2.25592 15.8129 2.25592 16.7893 3.23223Z" stroke="#EAECF0" stroke-width="2" stroke-linecap="round" stroke-linejoin="round"/>
</svg>
