<svg width="114" height="44" viewBox="0 0 114 44" fill="none" xmlns="http://www.w3.org/2000/svg">
<path d="M21.332 23.08C21.332 20.8 21.232 19.1333 21.032 18.08C20.832 17.0133 20.452 16.38 19.892 16.18L19.972 15.9C20.3853 15.9533 21.0587 15.98 21.992 15.98C22.9253 15.98 23.7853 15.9267 24.572 15.82L24.632 16.28C23.6853 16.5067 23.0253 16.64 22.652 16.68C22.4787 17.9867 22.392 19.7267 22.392 21.9V23.08C22.392 25.5733 22.4787 27.3133 22.652 28.3C23.332 28.38 23.972 28.5 24.572 28.66L24.492 29.16C23.7853 29.0533 23.072 29 22.352 29C21.6453 29 21.072 29.02 20.632 29.06C20.632 28.62 20.1987 27.64 19.332 26.12C18.4653 24.6 16.892 22.06 14.612 18.5L14.532 18.54V21.9C14.532 25.1667 14.7787 27.3 15.272 28.3C16.0053 28.3667 16.732 28.4933 17.452 28.68L17.412 29.16C16.4253 29.0533 15.352 29 14.192 29C13.0453 29 12.1187 29.0533 11.412 29.16L11.332 28.66C11.932 28.4733 12.572 28.3333 13.252 28.24C13.3987 27.1467 13.472 25.4267 13.472 23.08V21.9C13.472 20.02 13.392 18.4133 13.232 17.08C11.6587 17.08 10.652 17.2933 10.212 17.72C10.1187 17.9067 10.072 18.2 10.072 18.6C10.072 19 10.1387 19.2733 10.272 19.42L10.252 19.56C9.91868 19.76 9.58534 20.04 9.25201 20.4C9.09201 20.3867 8.96534 20.32 8.87201 20.2C8.76534 20.08 8.71201 19.94 8.71201 19.78C8.71201 19.1267 9.10534 18.3467 9.89201 17.44C10.6787 16.5333 11.412 15.96 12.092 15.72C12.252 15.7333 12.6987 15.78 13.432 15.86C14.1787 15.94 14.792 15.98 15.272 15.98C15.752 15.98 16.1987 15.94 16.612 15.86L16.692 16.36C16.1453 16.5867 15.872 16.8067 15.872 17.02C15.9387 17.38 16.3187 18.14 17.012 19.3C17.7053 20.4467 19.1187 22.68 21.252 26L21.332 25.96V23.08ZM32.2931 16.1C33.3464 16.1 34.0731 15.8933 34.4731 15.48L34.8531 15.68C34.2798 16.72 33.9464 17.9333 33.8531 19.32H33.3531C33.2331 18.7467 33.1731 18.02 33.1731 17.14C32.8264 17.2467 32.3931 17.3 31.8731 17.3C31.3531 17.3 30.4931 17.2467 29.2931 17.14C29.1864 18.1267 29.1331 19.64 29.1331 21.68C29.7064 21.7867 30.2664 21.84 30.8131 21.84C31.8531 21.84 32.5131 21.5533 32.7931 20.98L33.1931 21.06C33.0731 21.4867 33.0131 22 33.0131 22.6C33.0131 23.1867 33.0531 23.7667 33.1331 24.34L32.6731 24.42C32.4731 23.9133 32.3398 23.32 32.2731 22.64C31.7798 22.6 31.2664 22.58 30.7331 22.58C30.1998 22.58 29.6664 22.6133 29.1331 22.68C29.1464 25.4 29.2331 27.2733 29.3931 28.3C30.0598 28.3667 30.7931 28.4933 31.5931 28.68L31.5331 29.16C30.5464 29.0533 29.4731 29 28.3131 29C27.1664 29 26.2398 29.0533 25.5331 29.16L25.4531 28.66C26.0531 28.4733 26.6931 28.3333 27.3731 28.24C27.5198 27.1467 27.5931 25.4267 27.5931 23.08V21.9C27.5931 20.58 27.5131 18.96 27.3531 17.04H27.3131C25.7398 17.04 24.7331 17.2533 24.2931 17.68C24.1998 17.8667 24.1531 18.16 24.1531 18.56C24.1531 18.96 24.2198 19.2333 24.3531 19.38L24.3331 19.52C23.9998 19.72 23.6664 20 23.3331 20.36C23.1731 20.3467 23.0464 20.28 22.9531 20.16C22.8464 20.04 22.7931 19.9 22.7931 19.74C22.7931 19.0867 23.1864 18.3067 23.9731 17.4C24.7598 16.4933 25.4931 15.92 26.1731 15.68C27.1064 15.72 28.1931 15.8 29.4331 15.92C30.6864 16.04 31.6398 16.1 32.2931 16.1ZM37.2787 15.68C38.1987 15.72 39.2521 15.8 40.4387 15.92C41.6387 16.04 42.4921 16.1 42.9987 16.1C43.5054 16.1 43.8854 16.06 44.1387 15.98C44.7521 15.3933 45.1854 14.9467 45.4387 14.64L45.7587 14.88C45.0521 15.8 44.6254 16.76 44.4787 17.76C43.1587 17.4 41.9521 17.18 40.8587 17.1C40.7654 18.5533 40.7187 20.4667 40.7187 22.84C40.7187 25.2 40.8054 27.02 40.9787 28.3C41.6454 28.3667 42.3787 28.4933 43.1787 28.68L43.1187 29.16C42.1321 29.0533 41.0587 29 39.8987 29C38.7521 29 37.8254 29.0533 37.1187 29.16L37.0387 28.66C37.6387 28.4733 38.2787 28.3333 38.9587 28.24C39.1054 27.1467 39.1787 25.4267 39.1787 23.08V21.9C39.1787 20.58 39.0987 18.96 38.9387 17.04H38.4187C36.8454 17.04 35.8387 17.2533 35.3987 17.68C35.3054 17.8667 35.2587 18.16 35.2587 18.56C35.2587 18.96 35.3254 19.2333 35.4587 19.38L35.4387 19.52C35.1054 19.72 34.7721 20 34.4387 20.36C34.2787 20.3467 34.1521 20.28 34.0587 20.16C33.9521 20.04 33.8987 19.9 33.8987 19.74C33.8987 19.0867 34.2921 18.3067 35.0787 17.4C35.8654 16.4933 36.5987 15.92 37.2787 15.68ZM48.1298 29.24C47.7698 29.24 47.4565 29.1067 47.1898 28.84C46.9232 28.5733 46.7898 28.26 46.7898 27.9C46.7898 27.4867 46.9098 27.16 47.1498 26.92C47.3898 26.68 47.7165 26.56 48.1298 26.56C48.4765 26.56 48.7832 26.6933 49.0498 26.96C49.3298 27.2267 49.4698 27.54 49.4698 27.9C49.4698 28.3 49.3432 28.6267 49.0898 28.88C48.8365 29.12 48.5165 29.24 48.1298 29.24ZM54.8259 26.64C54.8259 27.2933 54.9059 27.78 55.0659 28.1C54.9859 28.3133 54.7592 28.52 54.3859 28.72C54.0259 28.9067 53.6192 29 53.1659 29C52.7259 29 52.3792 28.8667 52.1259 28.6C51.8859 28.32 51.7659 27.9467 51.7659 27.48V22.4C51.7659 21.2933 51.6592 20.3733 51.4459 19.64L51.3259 19.26C51.3792 19.1933 51.4526 19.1067 51.5459 19C51.6526 18.8933 51.8726 18.7533 52.2059 18.58C52.5392 18.4067 52.8859 18.32 53.2459 18.32C54.0192 18.32 54.5059 18.7733 54.7059 19.68C55.1592 18.8267 55.9259 18.4 57.0059 18.4C58.0992 18.4 58.8659 18.8933 59.3059 19.88C59.4659 19.4667 59.7459 19.12 60.1459 18.84C60.5459 18.5467 61.0926 18.4 61.7859 18.4C62.4792 18.4 63.0659 18.6667 63.5459 19.2C64.0259 19.72 64.2659 20.44 64.2659 21.36V26.76L64.6859 27.78C64.6326 27.8733 64.5592 27.9867 64.4659 28.12C64.3726 28.2533 64.1659 28.4333 63.8459 28.66C63.5392 28.8867 63.2059 29 62.8459 29C61.7392 29 61.1859 28.2133 61.1859 26.64V22.78C61.1859 22.0733 61.0659 21.5933 60.8259 21.34C60.5859 21.0867 60.1659 20.9467 59.5659 20.92L59.5859 21.36V26.64C59.5859 27.2667 59.6659 27.7533 59.8259 28.1C59.7859 28.1667 59.7259 28.2533 59.6459 28.36C59.5792 28.4533 59.3859 28.5867 59.0659 28.76C58.7459 28.92 58.3592 29 57.9059 29C57.4659 29 57.1192 28.86 56.8659 28.58C56.6259 28.3 56.5059 27.9333 56.5059 27.48V22.78C56.5059 22.0733 56.3859 21.5933 56.1459 21.34C55.9059 21.0867 55.4659 20.9467 54.8259 20.92V26.64ZM69.5373 22.98C69.5373 22.0333 69.0107 21.56 67.9573 21.56C67.3573 21.56 66.7307 21.7533 66.0773 22.14C65.864 21.9267 65.7573 21.6667 65.7573 21.36C65.7573 21.04 65.844 20.7133 66.0173 20.38C66.204 20.0467 66.444 19.7333 66.7373 19.44C67.044 19.1333 67.4307 18.8867 67.8973 18.7C68.364 18.5 68.8573 18.4 69.3773 18.4C70.4173 18.4 71.2173 18.7267 71.7773 19.38C72.3373 20.0333 72.6173 20.9667 72.6173 22.18V26.76L73.0573 27.78C73.004 27.8733 72.9307 27.9867 72.8373 28.12C72.744 28.2533 72.5373 28.4333 72.2173 28.66C71.8973 28.8867 71.564 29 71.2173 29C70.3507 29 69.824 28.52 69.6373 27.56C69.1973 28.52 68.584 29 67.7973 29C67.024 29 66.4307 28.76 66.0173 28.28C65.6173 27.7867 65.4173 27.1467 65.4173 26.36C65.4173 24.32 66.7907 23.24 69.5373 23.12V22.98ZM67.9173 25.62C67.9173 26.14 68.0973 26.4733 68.4573 26.62C68.5373 26.66 68.624 26.68 68.7173 26.68C68.984 26.68 69.2573 26.5267 69.5373 26.22V24.02C68.4573 24.2733 67.9173 24.8067 67.9173 25.62ZM75.5153 29C74.422 29 73.8753 28.2133 73.8753 26.64V20.64L73.4353 19.26C73.4886 19.1933 73.562 19.1067 73.6553 19C73.762 18.8933 73.982 18.7533 74.3153 18.58C74.6486 18.4067 74.9953 18.32 75.3553 18.32C76.1953 18.32 76.702 18.8533 76.8753 19.92C77.5286 18.9067 78.302 18.4 79.1953 18.4C80.102 18.4 80.5553 18.8267 80.5553 19.68C80.5553 20.4267 80.3953 21.04 80.0753 21.52C79.782 21.9467 79.4753 22.2867 79.1553 22.54C78.5286 21.98 77.7886 21.62 76.9353 21.46V26.76L77.3753 27.78C77.322 27.8733 77.2486 27.9867 77.1553 28.12C77.062 28.2533 76.8553 28.4333 76.5353 28.66C76.2153 28.8867 75.8753 29 75.5153 29ZM84.2851 26.64C84.2851 27.2933 84.3651 27.78 84.5251 28.1C84.4451 28.3133 84.2185 28.52 83.8451 28.72C83.4851 28.9067 83.0785 29 82.6251 29C82.1851 29 81.8385 28.8667 81.5851 28.6C81.3451 28.32 81.2251 27.9467 81.2251 27.48V19.04C81.2251 17.8933 81.1118 16.9733 80.8851 16.28L80.7651 15.9C80.8185 15.8333 80.8918 15.7467 80.9851 15.64C81.0918 15.5333 81.3118 15.3933 81.6451 15.22C81.9918 15.0333 82.3451 14.94 82.7051 14.94C83.7585 14.94 84.2851 15.7733 84.2851 17.44V23.68C84.5651 23.4933 84.8518 23.3733 85.1451 23.32C85.5185 22.1733 85.8585 20.6267 86.1651 18.68C86.5518 18.5067 87.0785 18.42 87.7451 18.42C88.6518 18.42 89.1051 18.8933 89.1051 19.84C89.1051 20.3467 88.9118 21.06 88.5251 21.98C88.1385 22.9 87.6585 23.62 87.0851 24.14L88.2851 26C88.6718 26.56 88.9651 26.9733 89.1651 27.24L89.4851 27.66C89.2851 28.2467 88.8985 28.6467 88.3251 28.86C88.0851 28.9533 87.8185 29 87.5251 29C86.8185 29 86.2985 28.6733 85.9651 28.02L84.2851 24.84V26.64ZM96.9262 26.14C97.0729 26.2867 97.1462 26.48 97.1462 26.72C97.1462 26.96 97.0796 27.2067 96.9462 27.46C96.8262 27.7 96.6396 27.94 96.3862 28.18C96.1462 28.4067 95.7996 28.6 95.3462 28.76C94.8929 28.92 94.3929 29 93.8462 29C93.3129 29 92.8329 28.9267 92.4062 28.78C91.9796 28.62 91.5729 28.3733 91.1862 28.04C90.3462 27.2933 89.9262 26.0733 89.9262 24.38C89.9262 22.6867 90.2129 21.4333 90.7862 20.62C91.3596 19.7933 92.0129 19.34 92.7462 19.26C93.2796 18.6867 93.9196 18.4 94.6662 18.4C95.4262 18.4 96.0396 18.6733 96.5062 19.22C96.9862 19.7667 97.2262 20.5133 97.2262 21.46C97.2262 22.5667 96.8196 23.44 96.0062 24.08C95.3396 24.6133 94.5396 25.02 93.6062 25.3C94.0729 25.9133 94.8462 26.22 95.9262 26.22C96.2329 26.22 96.5662 26.1933 96.9262 26.14ZM94.4462 22.44C94.4462 21.6267 93.9462 21.18 92.9462 21.1V22.9C92.9462 23.5 92.9996 23.98 93.1062 24.34C93.9996 23.8467 94.4462 23.2133 94.4462 22.44ZM103.452 18.84C103.585 19.1733 103.652 19.5267 103.652 19.9C103.652 20.26 103.638 20.5267 103.612 20.7C103.598 20.86 103.518 21.04 103.372 21.24C103.225 21.4267 103.032 21.52 102.792 21.52C102.552 21.52 102.205 21.5067 101.752 21.48V24.42C101.752 25.7267 102.318 26.5933 103.452 27.02C103.452 27.5133 103.278 27.9667 102.932 28.38C102.598 28.7933 102.138 29 101.552 29C100.698 29 100.012 28.6867 99.4917 28.06C98.9717 27.4333 98.7117 26.62 98.7117 25.62V21.26C98.365 21.1667 98.0517 21.0533 97.7717 20.92L97.7517 20.68C97.7517 19.7733 98.065 19.1667 98.6917 18.86C98.6384 17.94 98.525 17.2133 98.3517 16.68L98.2717 16.4C98.325 16.3333 98.3984 16.2467 98.4917 16.14C98.5984 16.0333 98.8184 15.8933 99.1517 15.72C99.485 15.5467 99.8317 15.46 100.192 15.46C101.232 15.46 101.752 16.2933 101.752 17.96V18.78C102.178 18.82 102.745 18.84 103.452 18.84Z" fill="white"/>
</svg>
