<svg width="109" height="32" viewBox="0 0 109 32" fill="none" xmlns="http://www.w3.org/2000/svg">
<g clip-path="url(#clip0_722_5822)">
<path d="M23.3704 0.235352H8.62927C3.99344 0.235352 0.235352 3.99344 0.235352 8.62927V23.3704C0.235352 28.0062 3.99344 31.7643 8.62927 31.7643H23.3704C28.0062 31.7643 31.7643 28.0062 31.7643 23.3704V8.62927C31.7643 3.99344 28.0062 0.235352 23.3704 0.235352Z" fill="white"/>
<path d="M18.7719 26.3665H12.417C14.169 24.6129 17.0564 24.5649 18.7719 26.3665Z" fill="url(#paint0_linear_722_5822)"/>
<path d="M24.1026 15.2241C24.0552 19.5079 21.4283 23.7915 15.6059 23.7915C9.78354 23.7915 7.08594 19.6026 7.08594 15.2478C7.08594 10.8929 9.87858 6.51465 15.6063 6.51465C21.3339 6.51465 24.1499 10.8929 24.1029 15.2241H24.1026ZM10.1627 15.2951C10.2338 18.0167 11.701 20.9278 15.6063 20.9278C19.5115 20.9278 20.9787 17.993 21.0261 15.2714C21.0735 12.4788 19.5115 9.35465 15.6063 9.35465C11.701 9.35465 10.0917 12.5025 10.1627 15.2951Z" fill="url(#paint1_linear_722_5822)"/>
</g>
<path d="M73.4281 6.16797V23.0828H70.6803L70.4875 21.4374C69.5711 22.8653 68.1015 23.3493 66.6557 23.3493C63.1605 23.3493 60.5342 21.0264 60.5342 17.106C60.5342 12.992 63.113 10.8627 66.583 10.8627C67.8361 10.8627 69.7877 11.5402 70.4875 12.7745V6.16797H73.4281ZM63.4748 17.106C63.4748 19.1875 64.9695 20.6154 66.8484 20.6154C68.7274 20.6154 70.2947 19.2604 70.2947 17.106C70.2947 14.9515 68.7036 13.6217 66.8484 13.6217C64.9932 13.6217 63.4748 14.9529 63.4748 17.106Z" fill="white"/>
<path d="M78.2827 18.1703C78.4755 19.6459 79.7523 20.7105 81.8254 20.7105C82.9095 20.7105 84.3316 20.2995 85.0063 19.5968L86.8866 21.4596C85.6335 22.7669 83.5855 23.3953 81.7779 23.3953C77.6806 23.3953 75.2471 20.855 75.2471 17.0314C75.2471 13.2077 77.7057 10.7881 81.5613 10.7881C85.417 10.7881 88.0195 13.2568 87.5626 18.1689H78.284L78.2827 18.1703ZM84.7409 15.7268C84.5481 14.1782 83.3426 13.4039 81.6564 13.4039C80.0653 13.4039 78.7647 14.1782 78.3303 15.7268H84.7409Z" fill="white"/>
<path d="M92.3491 6.16797V23.0828H89.4336V6.16797H92.3491Z" fill="white"/>
<path d="M97.2026 18.1703C97.3954 19.6459 98.6723 20.7105 100.745 20.7105C101.829 20.7105 103.251 20.2995 103.926 19.5968L105.807 21.4596C104.553 22.7669 102.504 23.3953 100.698 23.3953C96.6005 23.3953 94.167 20.855 94.167 17.0314C94.167 13.2077 96.6256 10.7881 100.481 10.7881C104.337 10.7881 106.939 13.2568 106.483 18.1689H97.204L97.2026 18.1703ZM103.662 15.7268C103.469 14.1782 102.264 13.4039 100.578 13.4039C98.9865 13.4039 97.6859 14.1782 97.2515 15.7268H103.662Z" fill="white"/>
<path d="M54.4752 25.6393H48.499C50.1469 24.0523 52.8617 24.0086 54.4752 25.6393Z" fill="white"/>
<path d="M59.4875 15.6727C59.4426 19.5508 56.9721 23.4288 51.4977 23.4288C46.0232 23.4288 43.4854 19.6356 43.4854 15.694C43.4854 11.7523 46.1117 7.78809 51.4977 7.78809C56.8837 7.78809 59.5324 11.7523 59.4875 15.6727ZM46.3784 15.7377C46.4457 18.2011 47.8256 20.8368 51.4977 20.8368C55.1698 20.8368 56.5496 18.1799 56.5945 15.7165C56.6394 13.1882 55.1698 10.3602 51.4977 10.3602C47.8256 10.3602 46.3111 13.2094 46.3784 15.7377Z" fill="white"/>
<defs>
<linearGradient id="paint0_linear_722_5822" x1="12.417" y1="25.6999" x2="18.7719" y2="25.6999" gradientUnits="userSpaceOnUse">
<stop stop-color="#6C59FF"/>
<stop offset="0.13" stop-color="#6462FB"/>
<stop offset="0.35" stop-color="#4F7BF0"/>
<stop offset="0.5" stop-color="#3E91E8"/>
<stop offset="0.99" stop-color="#6BEFDE"/>
</linearGradient>
<linearGradient id="paint1_linear_722_5822" x1="7.08594" y1="15.153" x2="24.1032" y2="15.153" gradientUnits="userSpaceOnUse">
<stop stop-color="#6C59FF"/>
<stop offset="0.13" stop-color="#6462FB"/>
<stop offset="0.35" stop-color="#4F7BF0"/>
<stop offset="0.5" stop-color="#3E91E8"/>
<stop offset="0.99" stop-color="#6BEFDE"/>
</linearGradient>
<clipPath id="clip0_722_5822">
<rect width="32" height="32" fill="white"/>
</clipPath>
</defs>
</svg>
