<svg width="20" height="20" viewBox="0 0 20 20" fill="none" xmlns="http://www.w3.org/2000/svg">
<path d="M4.89671 14.024H6.26234V14.3833C6.26234 14.587 6.33162 14.7577 6.47018 14.8954C6.60875 15.0332 6.78045 15.1021 6.98528 15.1021C7.19012 15.1021 7.36043 15.0332 7.49619 14.8954C7.63196 14.7577 7.69984 14.587 7.69984 14.3833V14.024H8.84984C9.10539 14.024 9.30904 13.9281 9.46078 13.7365C9.61251 13.5448 9.68838 13.3292 9.68838 13.0896V10.3405C9.68838 10.0809 9.61251 9.8592 9.46078 9.67552C9.30904 9.49184 9.10539 9.4 8.84984 9.4H5.61546V7.74687H8.99359C9.18525 7.74687 9.34897 7.6776 9.48473 7.53904C9.6205 7.40046 9.68838 7.22876 9.68838 7.02393C9.68838 6.81909 9.6195 6.64878 9.48174 6.51302C9.34398 6.37726 9.17327 6.30937 8.96963 6.30937H7.69984V5.95C7.69984 5.74635 7.63056 5.57565 7.492 5.43789C7.35342 5.30013 7.18172 5.23125 6.9769 5.23125C6.77205 5.23125 6.60175 5.30013 6.46598 5.43789C6.33022 5.57565 6.26234 5.74635 6.26234 5.95V6.30937H5.11234C4.85678 6.30937 4.63716 6.40521 4.45348 6.59687C4.2698 6.78854 4.17796 7.01309 4.17796 7.27051V9.99615C4.17796 10.2536 4.2698 10.4582 4.45348 10.6099C4.63716 10.7616 4.85678 10.8375 5.11234 10.8375H8.25088V12.5865H4.87275C4.68109 12.5865 4.51737 12.6557 4.38161 12.7943C4.24584 12.9329 4.17796 13.1046 4.17796 13.3094C4.17796 13.5142 4.24684 13.6845 4.3846 13.8203C4.52236 13.9561 4.69307 14.024 4.89671 14.024ZM13.8092 14C13.8833 14.0799 13.9697 14.1198 14.0684 14.1198C14.1671 14.1198 14.2564 14.0799 14.3363 14L15.5103 12.826H12.6353L13.8092 14ZM12.6353 7.74687H15.5103L14.3363 6.57292C14.2622 6.49306 14.1759 6.45312 14.0771 6.45312C13.9784 6.45312 13.8891 6.49306 13.8092 6.57292L12.6353 7.74687ZM1.854 17.8333C1.47067 17.8333 1.13525 17.6896 0.847754 17.4021C0.560254 17.1146 0.416504 16.7792 0.416504 16.3958V3.9375C0.416504 3.55417 0.560254 3.21875 0.847754 2.93125C1.13525 2.64375 1.47067 2.5 1.854 2.5H18.1457C18.541 2.5 18.8794 2.64375 19.1609 2.93125C19.4424 3.21875 19.5832 3.55417 19.5832 3.9375V16.3958C19.5832 16.7792 19.4424 17.1146 19.1609 17.4021C18.8794 17.6896 18.541 17.8333 18.1457 17.8333H1.854ZM1.854 16.3958H18.1457V3.9375H1.854V16.3958Z" fill="#475467"/>
</svg>
